# xmcd
#
# Track frame offsets:
#	150
#	12057
#	22867
#	37707
#	48867
#	57867
#	74377
#	84215
#	97015
#	107675
#	113570
#	125230
#	136575
#	145492
#	156230
#	170347
#	181702
#	194177
#	206957
#	217665
#
# Disc length: 3108 seconds
#
# Revision: 1
# Processed by: cddbd v1.5.2PL0 Copyright (c) Steve Scherf et al.
# Submitted via: audiograbber 1.83.01
#
DISCID=0a0c2214
DTITLE=Various Artist - Totally Bluegrass
DYEAR=2006
DGENRE=Bluegrass
TTITLE0=The Osborne Brothers - Rocky Top
TTITLE1=Don Reno and Arthur Smith - Over the Rainbow
TTITLE2=Jim McReynolds and Jesse McReynolds - Rider In The Rain
TTITLE3=Heights Of Grass - Bile 'Em Cabbage Down
TTITLE4=Mac Wiseman and The Osborne Brothers - Midnight Flyer
TTITLE5=Mac Wiseman - House Of The Rising Sun, The
TTITLE6=Lester Flatt and The Nashville Grass - Ballad Of Jed Clampett, The
TTITLE7=Mac Wiseman and The Osborne Brothers - Shackles And Chains
TTITLE8=Lester Flatt and The Nashville Grass - Roll In My Sweet Baby's Arms
TTITLE9=Merle Travis - White Heat
TTITLE10=The Osborne Brothers - Orange Blossom Special
TTITLE11=Mac Wiseman - Dark Hollow
TTITLE12=Pinnacle Boys - Sittin' On Top Of The World
TTITLE13=Benny Martin and Bobby Osborne - Dim Lights Thick Smoke
TTITLE14=Sam Bush , Vassar Clements , Eddie Adcock , Jerry Douglas - Black Moun
TTITLE14=tain Rag
TTITLE15=Merle Travis and Joe Maphis - White House Blues
TTITLE16=Jim McReynolds and Jesse McReynolds - Paradise
TTITLE17=Benny Martin - Wabash Cannonball
TTITLE18=The Osborne Brothers - I'll Fly Away
TTITLE19=Lester Flatt and The Nashville Grass - Will The Circle Be Unbroken
EXTD=
EXTT0=
EXTT1=
EXTT2=
EXTT3=
EXTT4=
EXTT5=
EXTT6=
EXTT7=
EXTT8=
EXTT9=
EXTT10=
EXTT11=
EXTT12=
EXTT13=
EXTT14=
EXTT15=
EXTT16=
EXTT17=
EXTT18=
EXTT19=
PLAYORDER=
